<svg width="59" height="59" xmlns="http://www.w3.org/2000/svg" xmlns:xlink="http://www.w3.org/1999/xlink" xml:space="preserve" overflow="hidden"><g transform="translate(-444 -861)"><path d="M473.5 888.042C470.427 888.042 467.969 885.583 467.969 882.51 467.969 879.438 470.427 876.979 473.5 876.979 476.573 876.979 479.031 879.438 479.031 882.51 479.031 885.583 476.573 888.042 473.5 888.042ZM473.5 869.604C469.259 869.604 465.265 871.694 462.868 875.258 460.471 878.761 459.979 883.248 461.516 887.243L467.354 900.149 472.394 910.72C472.578 911.15 473.008 911.396 473.5 911.396 473.992 911.396 474.422 911.15 474.606 910.72L479.646 900.149 485.484 887.243C487.021 883.248 486.529 878.761 484.132 875.258 481.735 871.694 477.741 869.604 473.5 869.604Z" fill="#E56636"/></g></svg>